<?xml version="1.0" encoding="UTF-8"?>
<svg version="1.1" xmlns="http://www.w3.org/2000/svg" width="200" height="200">
<path d="M0 0 C66 0 132 0 200 0 C200 66 200 132 200 200 C134 200 68 200 0 200 C0 134 0 68 0 0 Z " fill="#BCDA87" transform="translate(0,0)"/>
<path d="M0 0 C3.74067625 0.21886935 4.84476038 0.82998758 7.421875 3.65234375 C8.21207801 4.73722113 8.98783455 5.83274502 9.75 6.9375 C10.14832031 7.48857422 10.54664062 8.03964844 10.95703125 8.60742188 C12.44533814 10.68348386 13.85606976 12.71213952 15 15 C17.19229751 15.84934853 19.41795035 16.46800217 21.67578125 17.12109375 C24 18 24 18 25.98828125 19.56640625 C28.42818682 21.30513507 29.90961663 21.38914455 32.875 21.5 C37.20302165 21.80091275 40.23471608 22.72101237 44 25 C42.0785473 32.83361486 42.0785473 32.83361486 39 35 C34.56681605 37.4773675 29.95408005 37.41851757 25 37 C24.01 36.505 24.01 36.505 23 36 C23 36.66 23 37.32 23 38 C31.35740901 38.32098157 38.22270481 38.21819111 46 35 C48 37 48 37 48.1953125 39.1640625 C48.17210937 39.97617188 48.14890625 40.78828125 48.125 41.625 C48.10695312 42.44226563 48.08890625 43.25953125 48.0703125 44.1015625 C48.04710937 44.72804687 48.02390625 45.35453125 48 46 C45.7573492 45.47009095 43.75666765 44.89754427 41.625 44 C38.75888129 42.90814525 36.0307961 42.42290178 33 42 C33.515625 42.94875 34.03125 43.8975 34.5625 44.875 C35.036875 45.90625 35.51125 46.9375 36 48 C35.505 48.99 35.505 48.99 35 50 C35.763125 50.04125 36.52625 50.0825 37.3125 50.125 C40 51 40 51 41.6875 53.75 C42.48571582 55.72653442 43.27878811 57.70516994 44.0625 59.6875 C44.99507936 62.21086402 44.99507936 62.21086402 47 65 C47.44111565 66.88154883 47.8109267 68.78062638 48.125 70.6875 C48.37636719 72.17830078 48.37636719 72.17830078 48.6328125 73.69921875 C48.75398438 74.45847656 48.87515625 75.21773438 49 76 C44.42956128 76.07746506 40.48042297 75.92244002 36 75 C35.01 75.495 35.01 75.495 34 76 C34 76.99 34 77.98 34 79 C34.99 79.495 34.99 79.495 36 80 C36.5472973 94.61486486 36.5472973 94.61486486 33 101 C32.03996427 103.8801072 31.92154198 105.58599883 32 108.5625 C32.11076443 112.77847114 32.11076443 112.77847114 31 115 C31.495 115.37125 31.99 115.7425 32.5 116.125 C34.59030542 118.73788178 34.10598867 120.74084851 34 124 C29.52095901 124.087842 25.04214276 124.14067447 20.5625 124.1875 C19.30244141 124.21263672 18.04238281 124.23777344 16.74414062 124.26367188 C9.81946598 124.31791215 3.25136169 124.323567 -3 121 C-6.83857531 116.57982237 -6.35148331 111.28800668 -6.30981445 105.69970703 C-5.76578058 99.20302509 -3.66101072 93.26449722 -1.5625 87.125 C-0.72196435 84.60946768 0.10639178 82.09030058 0.93359375 79.5703125 C1.30540771 78.47477051 1.67722168 77.37922852 2.06030273 76.25048828 C3.04829999 72.83292645 3.57537273 69.52866316 4 66 C4.18755859 64.50146484 4.18755859 64.50146484 4.37890625 62.97265625 C4.83928816 57.00408086 4.83928816 57.00408086 2.3203125 51.80078125 C0.89278792 50.5118259 -0.55838685 49.24861263 -2.03125 48.01171875 C-4.88107904 45.09969106 -5.51504107 42.11217173 -6.33203125 38.19921875 C-7.10286139 35.6613394 -8.14239256 34.83385287 -10 33 C-13.56766468 24.14182403 -14.15111776 15.43646455 -14 6 C-9.88295306 6.72241198 -6.69512628 8.02353711 -3 10 C-2.87625 9.0925 -2.7525 8.185 -2.625 7.25 C-2.07890323 4.41029677 -1.42736197 2.47409409 0 0 Z " fill="#FEE594" transform="translate(81,58)"/>
<path d="M0 0 C5.00845128 3.92554289 5.20872593 10.05503296 6 16 C1.42956128 16.07746506 -2.51957703 15.92244002 -7 15 C-7.66 15.33 -8.32 15.66 -9 16 C-9 16.99 -9 17.98 -9 19 C-8.34 19.33 -7.68 19.66 -7 20 C-6.4527027 34.61486486 -6.4527027 34.61486486 -10 41 C-10.96003573 43.8801072 -11.07845802 45.58599883 -11 48.5625 C-10.88923557 52.77847114 -10.88923557 52.77847114 -12 55 C-11.505 55.37125 -11.01 55.7425 -10.5 56.125 C-8.40969458 58.73788178 -8.89401133 60.74084851 -9 64 C-13.47904099 64.087842 -17.95785724 64.14067447 -22.4375 64.1875 C-23.69755859 64.21263672 -24.95761719 64.23777344 -26.25585938 64.26367188 C-33.18053402 64.31791215 -39.74863831 64.323567 -46 61 C-49.84282749 56.57492592 -49.34788511 51.27584666 -49.30541992 45.68212891 C-48.77374337 39.27226014 -46.70261275 33.42939299 -44.625 27.375 C-41.80741576 18.95746707 -39.27302054 10.80260914 -38 2 C-37.566875 2.495 -37.13375 2.99 -36.6875 3.5 C-35.00259517 5.33218192 -35.00259517 5.33218192 -32 5 C-31.21625 5.185625 -30.4325 5.37125 -29.625 5.5625 C-25.00115461 6.3331409 -21.22779092 4.79681114 -17 3 C-11.39478708 0.61778451 -6.12616173 -0.66830855 0 0 Z " fill="#F26606" transform="translate(124,118)"/>
<path d="M0 0 C3.74067625 0.21886935 4.84476038 0.82998758 7.421875 3.65234375 C8.21207801 4.73722113 8.98783455 5.83274502 9.75 6.9375 C10.14832031 7.48857422 10.54664062 8.03964844 10.95703125 8.60742188 C12.44533814 10.68348386 13.85606976 12.71213952 15 15 C15.99 15.66 16.98 16.32 18 17 C17.360625 17.433125 16.72125 17.86625 16.0625 18.3125 C13.73253997 19.91239177 13.73253997 19.91239177 13 23 C14.36125 22.195625 14.36125 22.195625 15.75 21.375 C19 20 19 20 21.375 20.8125 C21.91125 21.204375 22.4475 21.59625 23 22 C23.31349317 25.91866466 23.24669026 28.47444249 21.5625 32.0625 C18.17955944 35.94050504 14.3501745 38.31231257 10 41 C8.34959284 42.07635249 6.70357832 43.15947699 5.0625 44.25 C4.33160156 44.72953125 3.60070312 45.2090625 2.84765625 45.703125 C0.88018917 47.00479167 0.88018917 47.00479167 -1 49 C-4.42301045 45.34091986 -5.8536446 42.00080662 -7.19140625 37.28125 C-7.94476921 34.89991707 -7.94476921 34.89991707 -9.484375 32.6015625 C-14.07991733 24.71333778 -14.48233263 14.91422153 -14 6 C-9.88295306 6.72241198 -6.69512628 8.02353711 -3 10 C-2.87625 9.0925 -2.7525 8.185 -2.625 7.25 C-2.07890323 4.41029677 -1.42736197 2.47409409 0 0 Z " fill="#FB7C07" transform="translate(81,58)"/>
<path d="M0 0 C4.53404294 1.40143145 7.33736263 3.17655021 9.75 7.3125 C9.976875 7.89 10.20375 8.4675 10.4375 9.0625 C12.0875 7.7425 13.7375 6.4225 15.4375 5.0625 C14.4475 4.7325 13.4575 4.4025 12.4375 4.0625 C12.7675 3.0725 13.0975 2.0825 13.4375 1.0625 C14.7575 1.7225 16.0775 2.3825 17.4375 3.0625 C17.375 5.25 17.375 5.25 16.4375 8.0625 C14.78481277 9.4759825 13.04340896 10.61533354 11.21875 11.796875 C8.7974346 13.51728331 7.2085893 15.7010476 5.4375 18.0625 C2.33701072 19.61274464 -0.14144218 19.35242015 -3.5625 19.0625 C-6.31579021 17.26687595 -8.08877461 16.00995078 -9.5625 13.0625 C-9.90822176 10.04978178 -10.13956364 7.97001295 -9.5625 5.0625 C-6.46048036 1.35520823 -4.87521 0.08553 0 0 Z " fill="#B5D282" transform="translate(25.5625,74.9375)"/>
<path d="M0 0 C4.71123349 0.51474588 7.5035461 2.49343186 11.25 5.3125 C12.30703125 6.09238281 13.3640625 6.87226562 14.453125 7.67578125 C17 10 17 10 17.99609375 12.03515625 C18.00128434 14.64602426 17.22660409 15.94371334 15.8125 18.125 C15.38582031 18.80820313 14.95914063 19.49140625 14.51953125 20.1953125 C12.81463944 22.22014545 11.4560049 23.05240756 9 24 C6.4375 24.125 6.4375 24.125 4 23 C2.56161266 20.45470554 1.76983241 17.81015745 1 15 C0.773125 14.21625 0.54625 13.4325 0.3125 12.625 C-0.18751426 8.42488021 -0.07382079 4.22418957 0 0 Z " fill="#FEE594" transform="translate(69,68)"/>
<path d="M0 0 C1.2375 0.0825 2.475 0.165 3.75 0.25 C7 1 7 1 9 3.25 C10.12975245 6.35681925 9.97866614 7.88606229 9 11 C6.6875 11.25 6.6875 11.25 4 11 C2.1875 9 2.1875 9 1 7 C0.87625 7.7425 0.7525 8.485 0.625 9.25 C-0.70946884 15.12166289 -3.36235543 17.37053903 -8 21 C-8.02701408 18.89590361 -8.04640223 16.79170822 -8.0625 14.6875 C-8.07410156 13.51574219 -8.08570312 12.34398437 -8.09765625 11.13671875 C-8 8 -8 8 -7 5 C-7.99 4.67 -8.98 4.34 -10 4 C-9.625 2.0625 -9.625 2.0625 -9 0 C-5.91432934 -1.54283533 -3.35620798 -0.55019803 0 0 Z " fill="#FCE69F" transform="translate(124,133)"/>
<path d="M0 0 C3.71709694 0.22408031 4.84318733 0.83054114 7.421875 3.6171875 C8.21210143 4.69284689 8.98785898 5.7792619 9.75 6.875 C10.14832031 7.41769531 10.54664062 7.96039063 10.95703125 8.51953125 C12.74309963 10.99580911 14.02887476 13.08662427 15 16 C4.62242152 17.72107623 4.62242152 17.72107623 0.64453125 15.953125 C-1.25 14.5625 -1.25 14.5625 -4 12 C-3.52309796 10.37433394 -3.04340334 8.74948689 -2.5625 7.125 C-2.29566406 6.22007813 -2.02882813 5.31515625 -1.75390625 4.3828125 C-1 2 -1 2 0 0 Z " fill="#F77809" transform="translate(81,58)"/>
<path d="M0 0 C2.0625 0.4375 2.0625 0.4375 4 1 C4.19335938 2.03640625 4.38671875 3.0728125 4.5859375 4.140625 C4.84864867 5.51047609 5.11168671 6.88026452 5.375 8.25 C5.50132813 8.93191406 5.62765625 9.61382812 5.7578125 10.31640625 C6.43906367 13.82484976 7.16853415 16.91039673 9 20 C0.89891697 22.54151625 0.89891697 22.54151625 -3 22 C-4.8125 21 -4.8125 21 -6 19 C-6.55003751 15.383315 -6.71020228 12.19613015 -4.8125 9 C-2.44004321 7.69105832 -0.6664882 7.78379825 2 8 C1.65772428 5.02934491 1.65772428 5.02934491 1 2 C0.34 1.67 -0.32 1.34 -1 1 C-0.67 0.67 -0.34 0.34 0 0 Z " fill="#171B10" transform="translate(85,21)"/>
<path d="M0 0 C4.53404294 1.40143145 7.33736263 3.17655021 9.75 7.3125 C9.976875 7.89 10.20375 8.4675 10.4375 9.0625 C12.0875 7.7425 13.7375 6.4225 15.4375 5.0625 C14.4475 4.7325 13.4575 4.4025 12.4375 4.0625 C12.7675 3.0725 13.0975 2.0825 13.4375 1.0625 C14.7575 1.7225 16.0775 2.3825 17.4375 3.0625 C17.375 5.25 17.375 5.25 16.4375 8.0625 C14.78481277 9.4759825 13.04340896 10.61533354 11.21875 11.796875 C8.7974346 13.51728331 7.2085893 15.7010476 5.4375 18.0625 C2.33701072 19.61274464 -0.14144218 19.35242015 -3.5625 19.0625 C-6.31579021 17.26687595 -8.08877461 16.00995078 -9.5625 13.0625 C-9.90822176 10.04978178 -10.13956364 7.97001295 -9.5625 5.0625 C-6.46048036 1.35520823 -4.87521 0.08553 0 0 Z M-7 4.1875 C-8.73794095 5.98642561 -8.73794095 5.98642561 -9.125 8.5 C-8.33715263 12.08908249 -6.55187568 13.06958288 -3.5625 15.0625 C-0.54925805 16.56912097 2.12036377 16.24020373 5.4375 16.0625 C7.70930354 14.18581681 7.70930354 14.18581681 7.875 11.1875 C7.71595206 7.94353437 7.71595206 7.94353437 5.375 5.75 C1.19856117 3.35076918 -2.46207176 2.09307158 -7 4.1875 Z " fill="#10130B" transform="translate(25.5625,74.9375)"/>
<path d="M0 0 C5.00845128 3.92554289 5.20872593 10.05503296 6 16 C4.68 15.67 3.36 15.34 2 15 C1.87882812 14.43410156 1.75765625 13.86820313 1.6328125 13.28515625 C1.46523437 12.55167969 1.29765625 11.81820312 1.125 11.0625 C0.96257812 10.33160156 0.80015625 9.60070312 0.6328125 8.84765625 C0.17038477 6.79299706 0.17038477 6.79299706 -2 6 C-9.17441164 5.79991681 -15.07901925 8.00630644 -21.53125 10.94140625 C-24 12 -24 12 -26 12 C-24.5361389 7.60841671 -22.02168662 7.12052567 -18 5 C-18 4.34 -18 3.68 -18 3 C-5.28484513 -0.86283186 -5.28484513 -0.86283186 0 0 Z " fill="#F16B11" transform="translate(124,118)"/>
<path d="M0 0 C3.375 0.875 3.375 0.875 5.375 2.875 C5.92763158 8.95394737 5.92763158 8.95394737 4.25 11.75 C1.54340453 13.37395728 -0.46874437 13.81058662 -3.625 13.875 C-6 12.3125 -6 12.3125 -7.625 9.875 C-8.23475382 6.21647708 -8.07043026 4.56987121 -6.0625 1.4375 C-3.625 -0.125 -3.625 -0.125 0 0 Z " fill="#181C11" transform="translate(171.625,68.125)"/>
<path d="M0 0 C3.375 0.9375 3.375 0.9375 5.375 3.9375 C5.84149698 7.59172636 5.84496298 9.27607062 3.6875 12.3125 C1.375 13.9375 1.375 13.9375 -1.125 14.4375 C-4.49513879 13.76347224 -5.64177007 12.7287125 -7.625 9.9375 C-8.23475382 6.27897708 -8.07043026 4.63237121 -6.0625 1.5 C-3.625 -0.0625 -3.625 -0.0625 0 0 Z " fill="#161A10" transform="translate(104.625,27.0625)"/>
<path d="M0 0 C0.10957031 0.75925781 0.21914062 1.51851562 0.33203125 2.30078125 C0.49058594 3.29464844 0.64914063 4.28851563 0.8125 5.3125 C0.96332031 6.29863281 1.11414063 7.28476563 1.26953125 8.30078125 C2.05007087 11.18502122 2.73353824 12.1445842 5 14 C5.66 14.66 6.32 15.32 7 16 C3.18510326 17.46726798 0.70988378 16.43336419 -3 15 C-3 14.34 -3 13.68 -3 13 C-4.65 13 -6.3 13 -8 13 C-8 11.68 -8 10.36 -8 9 C-8.33 8.34 -8.66 7.68 -9 7 C-8.34 6.34 -7.68 5.68 -7 5 C-6.67 4.01 -6.34 3.02 -6 2 C-3 0 -3 0 0 0 Z " fill="#FBE69B" transform="translate(75,165)"/>
<path d="M0 0 C7.37042925 -0.36248013 7.37042925 -0.36248013 10.0625 1.1875 C11 3 11 3 10.875 5.3125 C10 8 10 8 8.375 11.1875 C7.92125 12.115625 7.4675 13.04375 7 14 C7.33 14.66 7.66 15.32 8 16 C0.34588601 18.99729685 -5.90279979 19.15475536 -14 18 C-14 17.34 -14 16.68 -14 16 C-13.27554688 16.03480469 -12.55109375 16.06960937 -11.8046875 16.10546875 C-6.08043945 16.2657477 -1.92946013 16.28630675 3 13 C5.46278801 10.53721199 5.99771255 8.29323018 7 5 C6.030625 4.731875 5.06125 4.46375 4.0625 4.1875 C3.051875 3.795625 2.04125 3.40375 1 3 C0.67 2.01 0.34 1.02 0 0 Z " fill="#B85C33" transform="translate(118,78)"/>
<path d="M0 0 C0.763125 0.20625 1.52625 0.4125 2.3125 0.625 C2.3125 4.625 2.3125 4.625 0.875 6.1875 C0.359375 6.661875 -0.15625 7.13625 -0.6875 7.625 C-1.0175 8.615 -1.3475 9.605 -1.6875 10.625 C0.2925 10.295 2.2725 9.965 4.3125 9.625 C4.6425 8.305 4.9725 6.985 5.3125 5.625 C5.9725 5.625 6.6325 5.625 7.3125 5.625 C6.98944236 8.61328314 6.66060879 10.23821245 4.625 12.5 C1.41420492 14.06200842 -0.32263237 13.69889392 -3.6875 12.625 C-5.625 11 -5.625 11 -6.6875 8.625 C-6.5625 5 -6.5625 5 -5.6875 1.625 C-2.6875 -0.375 -2.6875 -0.375 0 0 Z " fill="#303722" transform="translate(49.6875,47.375)"/>
<path d="M0 0 C6.88665031 1.25847417 10.75962531 3.39176251 15 9 C16.63356951 10.37368345 18.2925002 11.71937515 20 13 C19.67 13.66 19.34 14.32 19 15 C17.78763672 14.06027344 17.78763672 14.06027344 16.55078125 13.1015625 C15.47158363 12.27574171 14.39214365 11.45023758 13.3125 10.625 C12.78205078 10.2125 12.25160156 9.8 11.70507812 9.375 C8.59501734 7.00906418 5.70621566 5.25144944 2 4 C2.13277344 4.99 2.26554687 5.98 2.40234375 7 C3.29440701 13.66349336 4.18287505 20.32681287 5 27 C-0.15488862 19.26766707 -0.48911558 9.03958051 0 0 Z " fill="#EFA23A" transform="translate(67,64)"/>
<path d="M0 0 C1.9375 1.1875 1.9375 1.1875 3 3 C2.6875 5.6875 2.6875 5.6875 2 8 C-1.34373475 7.44271087 -4.03312999 6.64826111 -7 5 C-7 6.98 -7 8.96 -7 11 C-4.03 11.495 -4.03 11.495 -1 12 C-1 12.33 -1 12.66 -1 13 C-6.40432346 13.48038431 -6.40432346 13.48038431 -8.9375 11.4375 C-10.45826219 7.94869263 -9.94135898 5.63095606 -9 2 C-5.53076119 -0.31282587 -4.07794425 -0.42478586 0 0 Z " fill="#191D12" transform="translate(148,40)"/>
<path d="M0 0 C1.67542976 0.28604898 3.34385343 0.61781233 5 1 C5 3.31 5 5.62 5 8 C-4.24 8 -13.48 8 -23 8 C-23 7.67 -23 7.34 -23 7 C-21.87464844 6.97873047 -21.87464844 6.97873047 -20.7265625 6.95703125 C-13.39311525 6.6152963 -5.47268518 5.47268518 0 0 Z " fill="#E66A14" transform="translate(110,174)"/>
<path d="M0 0 C0.99 0.66 1.98 1.32 3 2 C3.29296875 4.1640625 3.29296875 4.1640625 3.1875 6.625 C3.16042969 7.44226563 3.13335937 8.25953125 3.10546875 9.1015625 C3.07066406 9.72804688 3.03585938 10.35453125 3 11 C0.52695999 10.46750277 -0.83173304 10.13925541 -2.8125 8.5 C-5.76917479 6.47256586 -8.47928577 6.33853021 -12 6 C-12 5.34 -12 4.68 -12 4 C-14.31 4 -16.62 4 -19 4 C-19 3.67 -19 3.34 -19 3 C-18.29875 3.03480469 -17.5975 3.06960937 -16.875 3.10546875 C-12.03403992 3.24359397 -8.007051 3.28376973 -3.5 1.375 C-1.7675 0.694375 -1.7675 0.694375 0 0 Z " fill="#FB7875" transform="translate(126,93)"/>
<path d="M0 0 C2.64 0.66 5.28 1.32 8 2 C8 2.66 8 3.32 8 4 C6.68 4 5.36 4 4 4 C3.87625 4.639375 3.7525 5.27875 3.625 5.9375 C2.8020178 9.97011276 1.90114025 13.98423907 1 18 C3.35367713 18.6878236 3.35367713 18.6878236 6 19 C6.99 18.34 7.98 17.68 9 17 C8.67 18.65 8.34 20.3 8 22 C6.22888156 21.52188823 4.45811517 21.0424722 2.6875 20.5625 C1.70136719 20.29566406 0.71523437 20.02882813 -0.30078125 19.75390625 C-2.21517526 19.21920575 -4.11433615 18.62855462 -6 18 C-6 17.34 -6 16.68 -6 16 C-5.01 15.67 -4.02 15.34 -3 15 C-0.54209963 9.72006588 0.36134972 5.78159553 0 0 Z " fill="#1F2416" transform="translate(126,25)"/>
<path d="M0 0 C3.4375 0.0625 3.4375 0.0625 7 1 C9 3.25 9 3.25 10 6 C9.6875 8.8125 9.6875 8.8125 9 11 C6.70703125 11.28125 6.70703125 11.28125 4 11 C2.19921875 9.03125 2.19921875 9.03125 0.6875 6.5 C0.17574219 5.6646875 -0.33601563 4.829375 -0.86328125 3.96875 C-1.23839844 3.3190625 -1.61351563 2.669375 -2 2 C-1.34 1.34 -0.68 0.68 0 0 Z " fill="#FBDD8D" transform="translate(124,133)"/>
<path d="M0 0 C2.64525803 0.95523207 4.81123085 1.85699307 7.0625 3.5625 C9.07687729 5.05703799 10.55493989 5.56338212 13 6 C12.01 7.485 12.01 7.485 11 9 C10.01 9 9.02 9 8 9 C7.855625 9.804375 7.71125 10.60875 7.5625 11.4375 C7 14 7 14 6 15 C0.99021488 15.73673311 -1.89476483 13.57583383 -6 11 C-5.67 9.68 -5.34 8.36 -5 7 C-4.45730469 7.3609375 -3.91460938 7.721875 -3.35546875 8.09375 C-2.64003906 8.5578125 -1.92460938 9.021875 -1.1875 9.5 C-0.47980469 9.9640625 0.22789063 10.428125 0.95703125 10.90625 C3.05458124 12.23599375 3.05458124 12.23599375 6 12 C6.33 10.35 6.66 8.7 7 7 C4.36095629 5.58622659 1.92879371 4.62759865 -1 4 C-0.67 2.68 -0.34 1.36 0 0 Z " fill="#191D12" transform="translate(35,59)"/>
<path d="M0 0 C1.23556641 0.01740234 1.23556641 0.01740234 2.49609375 0.03515625 C3.32238281 0.04417969 4.14867188 0.05320313 5 0.0625 C5.63808594 0.07410156 6.27617188 0.08570313 6.93359375 0.09765625 C7.59359375 1.41765625 8.25359375 2.73765625 8.93359375 4.09765625 C7.93359375 5.59765625 7.93359375 5.59765625 5.93359375 7.09765625 C3.1787962 7.42955957 0.72942009 7.27803214 -2.06640625 7.09765625 C-3.06640625 6.09765625 -3.06640625 6.09765625 -3.19140625 3.59765625 C-3.01865637 0.14265862 -3.01865637 0.14265862 0 0 Z " fill="#FBDC8D" transform="translate(117.06640625,174.90234375)"/>
<path d="M0 0 C3.53571429 0.53571429 3.53571429 0.53571429 5 2 C5.27314815 7.73611111 5.27314815 7.73611111 5 10 C4.34 10.66 3.68 11.32 3 12 C-0.53571429 11.46428571 -0.53571429 11.46428571 -2 10 C-2.27314815 4.26388889 -2.27314815 4.26388889 -2 2 C-1.34 1.34 -0.68 0.68 0 0 Z " fill="#B3D081" transform="translate(102,28)"/>
<path d="M0 0 C0.33 1.65 0.66 3.3 1 5 C-1.55068845 7.35448165 -2.71017358 7.98327924 -6.25 8.1875 C-7.1575 8.125625 -8.065 8.06375 -9 8 C-9.33 6.35 -9.66 4.7 -10 3 C-6.68152292 -0.06320961 -4.44849969 -0.3033068 0 0 Z " fill="#B3D081" transform="translate(175,71)"/>
<path d="M0 0 C0.33 2.97 0.66 5.94 1 9 C-0.65 9.33 -2.3 9.66 -4 10 C-5.5625 8.375 -5.5625 8.375 -7 6 C-6.8125 2.8125 -6.8125 2.8125 -6 0 C-4 -1 -4 -1 0 0 Z " fill="#B4D181" transform="translate(88,31)"/>
<path d="M0 0 C0.33 0 0.66 0 1 0 C1.226875 0.928125 1.45375 1.85625 1.6875 2.8125 C2.74661886 6.07012076 2.74661886 6.07012076 5.1875 7.875 C8.72962593 9.29185037 11.21901913 9.49012715 15 9 C16.98239527 7.13875077 16.98239527 7.13875077 18 5 C18.66 5.33 19.32 5.66 20 6 C15.25 11.875 15.25 11.875 13 13 C8.81855989 13.39447548 6.69053952 13.45035186 3.125 11.125 C0.22069946 8.22069946 0.00992585 7.57569904 -0.0625 3.375 C-0.041875 2.26125 -0.02125 1.1475 0 0 Z " fill="#0D0F09" transform="translate(16,81)"/>
<path d="M0 0 C0.99 0.33 1.98 0.66 3 1 C2.67 2.32 2.34 3.64 2 5 C1.67 4.34 1.34 3.68 1 3 C0.34 3 -0.32 3 -1 3 C-0.57692877 4.31722179 -0.13602514 5.62872664 0.3125 6.9375 C0.55613281 7.66839844 0.79976562 8.39929688 1.05078125 9.15234375 C1.91240441 11.35932024 1.91240441 11.35932024 5 12 C5 12.66 5 13.32 5 14 C3.02 14.99 1.04 15.98 -1 17 C-1.12375 16.113125 -1.2475 15.22625 -1.375 14.3125 C-1.94412736 11.29612498 -2.76614436 8.79673946 -4 6 C-4.99 6.33 -5.98 6.66 -7 7 C-5.96858962 4.42147406 -5.38518655 3.22177407 -2.9375 1.8125 C-2.298125 1.544375 -1.65875 1.27625 -1 1 C-0.67 0.67 -0.34 0.34 0 0 Z " fill="#1A1E13" transform="translate(61,37)"/>
<path d="M0 0 C3 2 3 2 3.51171875 3.9453125 C3.67447917 5.96354167 3.83723958 7.98177083 4 10 C2.68 10 1.36 10 0 10 C0 9.34 0 8.68 0 8 C0.66 8 1.32 8 2 8 C1.67 7.34 1.34 6.68 1 6 C-3.455 6.495 -3.455 6.495 -8 7 C-8.33 7.99 -8.66 8.98 -9 10 C-10.0625 8.1875 -10.0625 8.1875 -11 6 C-10.67 5.01 -10.34 4.02 -10 3 C-10 3.66 -10 4.32 -10 5 C-5.05 3.515 -5.05 3.515 0 2 C0 1.34 0 0.68 0 0 Z " fill="#181C11" transform="translate(180,83)"/>
<path d="M0 0 C7.37042925 -0.36248013 7.37042925 -0.36248013 10.0625 1.1875 C11.39826326 3.76997563 10.83707827 5.27949563 10 8 C9.67 8.66 9.34 9.32 9 10 C8.34 10 7.68 10 7 10 C7 8.35 7 6.7 7 5 C5.5459375 4.5978125 5.5459375 4.5978125 4.0625 4.1875 C3.051875 3.795625 2.04125 3.40375 1 3 C0.67 2.01 0.34 1.02 0 0 Z " fill="#84350A" transform="translate(118,78)"/>
<path d="M0 0 C2.875 1.375 2.875 1.375 4.875 4.375 C4 7.0625 4 7.0625 2.875 9.375 C2.4728125 8.4159375 2.4728125 8.4159375 2.0625 7.4375 C0.98832248 5.04368314 0.98832248 5.04368314 -2.125 4.375 C-5.27520361 5.25819294 -5.27520361 5.25819294 -8.125 6.375 C-7.76060417 3.73313021 -7.24204411 2.50504902 -5.4375 0.5 C-3.125 -0.625 -3.125 -0.625 0 0 Z " fill="#F79221" transform="translate(102.125,74.625)"/>
<path d="M0 0 C1.98 0 3.96 0 6 0 C6 0.66 6 1.32 6 2 C5.34 2 4.68 2 4 2 C3.67 2.99 3.34 3.98 3 5 C2.01 5.61875 1.02 6.2375 0 6.875 C-3.20670627 8.69412872 -3.20670627 8.69412872 -3.875 11.75 C-3.91625 12.4925 -3.9575 13.235 -4 14 C-4.99 13.67 -5.98 13.34 -7 13 C-7.375 10.8125 -7.375 10.8125 -7 8 C-5.05874656 6.26526288 -3.05727132 4.5954349 -1 3 C-0.67 2.01 -0.34 1.02 0 0 Z " fill="#191C12" transform="translate(164,55)"/>
<path d="M0 0 C0.99 0.495 0.99 0.495 2 1 C2 1.66 2 2.32 2 3 C2.66 3 3.32 3 4 3 C4.33 3.66 4.66 4.32 5 5 C6.98 5 8.96 5 11 5 C11.33 3.68 11.66 2.36 12 1 C12.66 1 13.32 1 14 1 C13.67694236 3.98828314 13.34810879 5.61321245 11.3125 7.875 C8.10170492 9.43700842 6.36486763 9.07389392 3 8 C1.125 6.1875 1.125 6.1875 0 4 C0 2.68 0 1.36 0 0 Z " fill="#1D2115" transform="translate(43,52)"/>
<path d="M0 0 C6.23508565 -0.59952747 6.23508565 -0.59952747 9.3125 1.8125 C11.7128868 6.34656395 12.32804907 10.95152656 13 16 C11.68 15.67 10.36 15.34 9 15 C8.95101562 14.21753906 8.90203125 13.43507812 8.8515625 12.62890625 C8.73941406 11.11103516 8.73941406 11.11103516 8.625 9.5625 C8.55539063 8.55316406 8.48578125 7.54382813 8.4140625 6.50390625 C8.27742188 5.67761719 8.14078125 4.85132812 8 4 C7.34 3.67 6.68 3.34 6 3 C6 2.34 6 1.68 6 1 C4.02 1 2.04 1 0 1 C0 0.67 0 0.34 0 0 Z " fill="#EF7A20" transform="translate(117,118)"/>
<path d="M0 0 C0.66 0.33 1.32 0.66 2 1 C2.84741068 3.55554217 3.47171926 6.13765919 4.12109375 8.75 C4.41113281 9.4925 4.70117188 10.235 5 11 C5.99 11.33 6.98 11.66 8 12 C6.1875 13.0625 6.1875 13.0625 4 14 C3.01 13.67 2.02 13.34 1 13 C0.896875 11.9275 0.79375 10.855 0.6875 9.75 C0.02599507 6.14179128 -0.57483421 4.63604977 -3 2 C-2.01 1.34 -1.02 0.68 0 0 Z " fill="#13160D" transform="translate(70,33)"/>
<path d="M0 0 C1.32 0.33 2.64 0.66 4 1 C2.46920333 4.44429252 0.38345294 7.09516673 -2 10 C-2.99 11.485 -2.99 11.485 -4 13 C-5.32 12.01 -6.64 11.02 -8 10 C-6.72530598 7.45061196 -5.50840774 7.25420387 -3 6 C-1.22809091 4.64555699 -1.22809091 4.64555699 0 3 C0 2.01 0 1.02 0 0 Z " fill="#11130C" transform="translate(156,48)"/>
<path d="M0 0 C0.51949219 0.37253906 1.03898437 0.74507813 1.57421875 1.12890625 C5.89542206 4.22692162 5.89542206 4.22692162 11 4.8125 C11.66 4.544375 12.32 4.27625 13 4 C12.34 5.32 11.68 6.64 11 8 C5.92387682 8.61528766 3.17017994 6.61658349 -1 4 C-0.67 2.68 -0.34 1.36 0 0 Z " fill="#11130C" transform="translate(30,66)"/>
<path d="M0 0 C1.32 0.66 2.64 1.32 4 2 C3.875 4.25 3.875 4.25 3 7 C-1.97297297 11 -1.97297297 11 -6 11 C-5.67 9.35 -5.34 7.7 -5 6 C-4.34 6.66 -3.68 7.32 -3 8 C-1.35 6.68 0.3 5.36 2 4 C1.01 3.67 0.02 3.34 -1 3 C-0.67 2.01 -0.34 1.02 0 0 Z " fill="#282F1D" transform="translate(39,76)"/>
<path d="M0 0 C2.64 0.66 5.28 1.32 8 2 C8 2.66 8 3.32 8 4 C6.68 4 5.36 4 4 4 C3.67 4.99 3.34 5.98 3 7 C2.34 7 1.68 7 1 7 C0.67 4.69 0.34 2.38 0 0 Z " fill="#2A301E" transform="translate(126,25)"/>
<path d="M0 0 C6.16259312 -0.37730162 10.52734586 0.03564567 16 3 C16.33 3.66 16.66 4.32 17 5 C13.7 4.34 10.4 3.68 7 3 C7 2.34 7 1.68 7 1 C4.69 1 2.38 1 0 1 C0 0.67 0 0.34 0 0 Z " fill="#E4AD6F" transform="translate(107,96)"/>
<path d="M0 0 C-0.99 0 -1.98 0 -3 0 C-3 0.66 -3 1.32 -3 2 C-10.28571429 6.57142857 -10.28571429 6.57142857 -15 6 C-14.01 5.34 -13.02 4.68 -12 4 C-11.37222656 3.56300781 -10.74445313 3.12601563 -10.09765625 2.67578125 C-9.42605469 2.22589844 -8.75445312 1.77601563 -8.0625 1.3125 C-7.39347656 0.85488281 -6.72445312 0.39726562 -6.03515625 -0.07421875 C-3.56674452 -1.1970855 -2.49596988 -0.92133116 0 0 Z " fill="#D75910" transform="translate(114,175)"/>
<path d="M0 0 C4.1724106 0.51881113 6.25416821 1.71151274 9.3125 4.5625 C10.00988281 5.20316406 10.70726563 5.84382813 11.42578125 6.50390625 C11.94527344 6.99761719 12.46476562 7.49132812 13 8 C12.67 8.66 12.34 9.32 12 10 C9.99708788 8.52464063 7.99763223 7.04497707 6 5.5625 C5.42765625 5.14162109 4.8553125 4.72074219 4.265625 4.28710938 C2.82546081 3.21555864 1.41048004 2.11033324 0 1 C0 0.67 0 0.34 0 0 Z " fill="#ECBF6D" transform="translate(74,69)"/>
<path d="M0 0 C0.99 0 1.98 0 3 0 C3 1.32 3 2.64 3 4 C1.02 4.66 -0.96 5.32 -3 6 C-2.42655063 3.13275314 -2.1385485 2.1385485 0 0 Z " fill="#FED885" transform="translate(97,75)"/>
<path d="M0 0 C3.375 0.25 3.375 0.25 7 1 C8.4375 3.0625 8.4375 3.0625 9 5 C8.34 5 7.68 5 7 5 C6.67 6.32 6.34 7.64 6 9 C5.34 6.69 4.68 4.38 4 2 C2.35 2.33 0.7 2.66 -1 3 C-0.67 2.01 -0.34 1.02 0 0 Z " fill="#1F2416" transform="translate(101,27)"/>
<path d="M0 0 C2.97 0 5.94 0 9 0 C8.34 1.32 7.68 2.64 7 4 C4.03 3.505 4.03 3.505 1 3 C0.67 2.01 0.34 1.02 0 0 Z " fill="#252A1A" transform="translate(165,78)"/>
<path d="M0 0 C1.65 0.33 3.3 0.66 5 1 C4.67 2.32 4.34 3.64 4 5 C1.525 4.01 1.525 4.01 -1 3 C-0.67 2.01 -0.34 1.02 0 0 Z " fill="#AECA7D" transform="translate(144,41)"/>
<path d="M0 0 C1.25541557 3.76624671 0.37061958 5.37188934 -1 9 C-1.99 9 -2.98 9 -4 9 C-3.71848913 7.68528432 -3.42446661 6.37324233 -3.125 5.0625 C-2.96257812 4.33160156 -2.80015625 3.60070313 -2.6328125 2.84765625 C-2 1 -2 1 0 0 Z " fill="#080905" transform="translate(128,31)"/>
<path d="M0 0 C0.99 0 1.98 0 3 0 C2.125 4.75 2.125 4.75 1 7 C0.34 7 -0.32 7 -1 7 C-1.04254356 5.00045254 -1.04080783 2.99958364 -1 1 C-0.67 0.67 -0.34 0.34 0 0 Z " fill="#7A2C08" transform="translate(126,81)"/>
<path d="M0 0 C1.32 0.66 2.64 1.32 4 2 C3.67 2.99 3.34 3.98 3 5 C1.68 5 0.36 5 -1 5 C-0.67 3.35 -0.34 1.7 0 0 Z " fill="#4E280E" transform="translate(100,78)"/>
<path d="M0 0 C1.98 0.495 1.98 0.495 4 1 C3.34 2.32 2.68 3.64 2 5 C1.01 5 0.02 5 -1 5 C-0.67 3.35 -0.34 1.7 0 0 Z " fill="#B5D282" transform="translate(46,49)"/>
<path d="M0 0 C0.66 0.33 1.32 0.66 2 1 C2 2.32 2 3.64 2 5 C4.97 5.495 4.97 5.495 8 6 C8 6.33 8 6.66 8 7 C5.1875 7.25 5.1875 7.25 2 7 C0.0625 5.1875 0.0625 5.1875 -1 3 C-0.67 2.01 -0.34 1.02 0 0 Z " fill="#1D2215" transform="translate(139,46)"/>
<path d="M0 0 C0.99 0.33 1.98 0.66 3 1 C3 1.66 3 2.32 3 3 C3.99 3.33 4.98 3.66 6 4 C4.1875 5.0625 4.1875 5.0625 2 6 C1.01 5.67 0.02 5.34 -1 5 C-0.67 3.35 -0.34 1.7 0 0 Z " fill="#1C2114" transform="translate(72,41)"/>
<path d="M0 0 C0.66 0 1.32 0 2 0 C2.33 1.98 2.66 3.96 3 6 C1.68 6.33 0.36 6.66 -1 7 C-1.33 6.34 -1.66 5.68 -2 5 C-1.34 4.67 -0.68 4.34 0 4 C0 2.68 0 1.36 0 0 Z " fill="#10120B" transform="translate(148,41)"/>
<path d="M0 0 C0.99 0.33 1.98 0.66 3 1 C2.67 2.32 2.34 3.64 2 5 C1.67 4.34 1.34 3.68 1 3 C0.34 3 -0.32 3 -1 3 C-1.33 3.99 -1.66 4.98 -2 6 C-1.125 1.125 -1.125 1.125 0 0 Z " fill="#2C3320" transform="translate(61,37)"/>
<path d="M0 0 C0.66 0 1.32 0 2 0 C2.36923077 4.55384615 2.36923077 4.55384615 0.5 6.8125 C0.005 7.204375 -0.49 7.59625 -1 8 C-1.66 7.67 -2.32 7.34 -3 7 C-2.01 4.69 -1.02 2.38 0 0 Z " fill="#070805" transform="translate(108,32)"/>
</svg>
