<?xml version="1.0" encoding="UTF-8"?>
<svg version="1.1" xmlns="http://www.w3.org/2000/svg" width="500" height="500">
<path d="M0 0 C165 0 330 0 500 0 C500 165 500 330 500 500 C335 500 170 500 0 500 C0 335 0 170 0 0 Z " fill="#BCDA88" transform="translate(0,0)"/>
<path d="M0 0 C35.49484431 -0.92006773 71.92040796 8.52226632 99.95117188 31.06201172 C100.85996094 31.76970703 101.76875 32.47740234 102.70507812 33.20654297 C131.57974281 56.13760491 153.22785496 91.45919056 157.51367188 128.48388672 C161.35087725 169.98240838 152.98663375 211.24462954 125.95117188 244.06201172 C115.11772181 256.86922735 102.90579261 267.77111867 88.95117188 277.06201172 C88.00886719 277.68978516 87.0665625 278.31755859 86.09570312 278.96435547 C73.74292377 286.64781907 59.72799417 291.44902112 45.82617188 295.49951172 C44.5665564 295.86991577 44.5665564 295.86991577 43.28149414 296.24780273 C19.7623258 302.79139531 -10.97022572 301.45748579 -34.04882812 294.06201172 C-34.93908691 293.77793457 -35.8293457 293.49385742 -36.74658203 293.20117188 C-74.8171274 280.62910168 -106.11894487 254.24518693 -124.79101562 218.73388672 C-128.2474644 211.82098917 -130.86588697 204.58273463 -133.3125 197.26074219 C-133.80982259 195.7757 -134.32195693 194.29554817 -134.84765625 192.8203125 C-136.67557055 187.61075676 -137.84077933 182.51469476 -138.67382812 177.06201172 C-138.85558594 175.94826172 -138.85558594 175.94826172 -139.04101562 174.81201172 C-142.00834363 156.23395811 -141.61276785 138.54098104 -138.04882812 120.06201172 C-137.91492676 119.3651123 -137.78102539 118.66821289 -137.64306641 117.95019531 C-131.86207033 89.22740391 -117.01621239 65.05561985 -97.04882812 44.06201172 C-96.36691406 43.30404297 -95.685 42.54607422 -94.98242188 41.76513672 C-72.92715671 18.11291498 -37.28951799 2.17827826 -5.06445312 0.15185547 C-3.37629241 0.10156053 -1.6881367 0.0510947 0 0 Z " fill="#91AEB1" transform="translate(241.048828125,99.93798828125)"/>
<path d="M0 0 C0.9178125 0.28875 1.835625 0.5775 2.78125 0.875 C20.47443584 7.14600258 35.85610195 22.10814481 44.10864258 38.828125 C50.24194801 52.05227739 54.71858315 67.05208679 51.38671875 81.6953125 C49.14321163 87.52645434 45.36117922 90.91759716 40 94 C36.98419216 95.00526928 34.94950675 95.13516745 31.79573059 95.15390015 C30.717742 95.16250061 29.63975342 95.17110107 28.52909851 95.17996216 C26.75476189 95.18635208 26.75476189 95.18635208 24.94458008 95.19287109 C23.07588257 95.20513733 23.07588257 95.20513733 21.16943359 95.21765137 C17.03613608 95.24251565 12.90287515 95.2591781 8.76953125 95.2734375 C7.34481996 95.2787987 5.92010873 95.28417621 4.49539757 95.28956985 C-1.43320304 95.3111962 -7.36180096 95.32993096 -13.29043102 95.34119225 C-21.77640456 95.35741894 -30.26191933 95.39056773 -38.74771994 95.44759309 C-44.71983055 95.48635229 -50.69181878 95.50583208 -56.66405183 95.51111281 C-60.22810372 95.51475872 -63.791666 95.52669722 -67.35558128 95.55921555 C-71.33639192 95.59501703 -75.31663161 95.59091005 -79.29760742 95.58349609 C-80.47037735 95.59990143 -81.64314728 95.61630676 -82.85145569 95.63320923 C-91.18461776 95.56973516 -96.00772662 93.67944599 -102.09375 88.0703125 C-107.14022347 81.08935754 -106.59497722 74.32968115 -106 66 C-105.98839844 65.21882813 -105.97679687 64.43765625 -105.96484375 63.6328125 C-105.16800009 45.825089 -93.51156531 27.88598705 -81 16 C-58.29335208 -3.81852165 -28.6080174 -9.44851951 0 0 Z " fill="#DECEC3" transform="translate(277,241)"/>
<path d="M0 0 C10.57792272 6.4992041 18.76720659 15.797475 22.08984375 27.8984375 C22.53621331 31.16005266 22.61446588 34.35917302 22.58984375 37.6484375 C22.58484863 38.52661133 22.57985352 39.40478516 22.57470703 40.30957031 C22.23315555 53.10008426 16.52447419 62.84517604 7.46484375 71.5859375 C-2.32389306 79.84400311 -14.50210272 81.79967224 -26.87109375 81.125 C-38.4396842 79.83960106 -47.87544321 71.75143605 -55.15234375 63.26171875 C-57.79644427 59.70687249 -59.44145171 56.05719036 -60.91015625 51.8984375 C-61.32265625 50.8259375 -61.73515625 49.7534375 -62.16015625 48.6484375 C-64.72432416 35.82759796 -62.36998892 24.99552594 -55.44921875 14.0859375 C-53.51589321 11.33806363 -51.43826785 9.11053515 -48.91015625 6.8984375 C-48.02328125 6.0734375 -47.13640625 5.2484375 -46.22265625 4.3984375 C-33.18534673 -6.3301818 -14.84153235 -7.37747115 0 0 Z " fill="#DECEC3" transform="translate(269.91015625,141.1015625)"/>
</svg>
